<svg xmlns="http://www.w3.org/2000/svg" version="1.1" xmlns:xlink="http://www.w3.org/1999/xlink" xmlns:svgjs="http://svgjs.dev/svgjs" width="1500" height="939" viewBox="0 0 1500 939"><g transform="matrix(1,0,0,1,-0.9090909090908781,-1.5145161290323017)"><svg viewBox="0 0 396 248" data-background-color="#ffffff" preserveAspectRatio="xMidYMid meet" height="939" width="1500" xmlns="http://www.w3.org/2000/svg" xmlns:xlink="http://www.w3.org/1999/xlink"><g id="tight-bounds" transform="matrix(1,0,0,1,0.2400000000000091,0.4000000000000057)"><svg viewBox="0 0 395.52 247.2" height="247.2" width="395.52"><g><svg></svg></g><g><svg viewBox="0 0 395.52 247.2" height="247.2" width="395.52"><g transform="matrix(1,0,0,1,75.54432,59.27981158494782)"><svg viewBox="0 0 244.43135999999998 128.64037683010434" height="128.64037683010434" width="244.43135999999998"><g><svg viewBox="0 0 244.43135999999998 128.64037683010434" height="128.64037683010434" width="244.43135999999998"><g><svg viewBox="0 0 244.43135999999998 128.64037683010434" height="128.64037683010434" width="244.43135999999998"><g><svg viewBox="0 0 244.43135999999998 128.64037683010434" height="128.64037683010434" width="244.43135999999998"><g id="textblocktransform"><svg viewBox="0 0 244.43135999999998 128.64037683010434" height="128.64037683010434" width="244.43135999999998" id="textblock"><g><svg viewBox="0 0 244.43135999999998 69.68314242214532" height="69.68314242214532" width="244.43135999999998"><g transform="matrix(1,0,0,1,0,0)"><svg width="244.43135999999998" viewBox="3.25 -35.45 126.99000000000001 36.21" height="69.68314242214532" data-palette-color="#2a2c35"><path d="M31.25-10.5L31.25-10.5Q31.25-8.33 30.42-6.42 29.59-4.52 28.16-3.09 26.73-1.66 24.83-0.83 22.92 0 20.75 0L20.75 0 3.25 0 3.25-35.01 20.75-35.01Q22.92-35.01 24.83-34.18 26.73-33.35 28.16-31.92 29.59-30.49 30.42-28.59 31.25-26.68 31.25-24.51L31.25-24.51Q31.25-23.54 30.98-22.51 30.71-21.48 30.22-20.53 29.74-19.58 29.05-18.8 28.37-18.02 27.54-17.5L27.54-17.5Q28.39-17.04 29.08-16.25 29.76-15.45 30.25-14.5 30.74-13.55 30.99-12.51 31.25-11.47 31.25-10.5ZM10.25-13.99L10.25-7.01 20.75-7.01Q21.48-7.01 22.12-7.28 22.75-7.54 23.23-8.02 23.71-8.5 23.97-9.13 24.24-9.77 24.24-10.5L24.24-10.5Q24.24-11.23 23.97-11.87 23.71-12.5 23.23-12.98 22.75-13.45 22.12-13.72 21.48-13.99 20.75-13.99L20.75-13.99 10.25-13.99ZM10.25-28L10.25-21 20.75-21Q21.48-21 22.12-21.26 22.75-21.53 23.23-22.01 23.71-22.49 23.97-23.13 24.24-23.78 24.24-24.51L24.24-24.51Q24.24-25.24 23.97-25.88 23.71-26.51 23.23-26.99 22.75-27.47 22.12-27.73 21.48-28 20.75-28L20.75-28 10.25-28ZM61.06-7.01L61.06 0 36.55 0 36.55-35.01 43.55-35.01 43.55-7.01 61.06-7.01ZM97.8-17.36L97.8-17.36Q97.8-14.87 97.15-12.56 96.5-10.25 95.33-8.24 94.16-6.23 92.5-4.57 90.84-2.91 88.84-1.72 86.84-0.54 84.52 0.11 82.2 0.76 79.71 0.76L79.71 0.76Q77.22 0.76 74.91 0.11 72.6-0.54 70.59-1.72 68.57-2.91 66.91-4.57 65.25-6.23 64.07-8.24 62.89-10.25 62.24-12.56 61.59-14.87 61.59-17.36L61.59-17.36Q61.59-19.85 62.24-22.17 62.89-24.49 64.07-26.49 65.25-28.49 66.91-30.15 68.57-31.81 70.59-32.98 72.6-34.16 74.91-34.8 77.22-35.45 79.71-35.45L79.71-35.45Q82.2-35.45 84.52-34.8 86.84-34.16 88.84-32.98 90.84-31.81 92.5-30.15 94.16-28.49 95.33-26.49 96.5-24.49 97.15-22.17 97.8-19.85 97.8-17.36ZM90.84-17.36L90.84-17.36Q90.84-19.65 89.96-21.69 89.08-23.73 87.58-25.23 86.08-26.73 84.04-27.61 82-28.49 79.71-28.49L79.71-28.49Q77.39-28.49 75.36-27.61 73.33-26.73 71.82-25.23 70.31-23.73 69.43-21.69 68.55-19.65 68.55-17.36L68.55-17.36Q68.55-15.06 69.43-13.05 70.31-11.04 71.82-9.52 73.33-8.01 75.36-7.13 77.39-6.25 79.71-6.25L79.71-6.25Q82-6.25 84.04-7.13 86.08-8.01 87.58-9.52 89.08-11.04 89.96-13.05 90.84-15.06 90.84-17.36ZM130.24-17.36L130.24-3.54Q127.8-1.46 124.8-0.35 121.79 0.76 118.55 0.76L118.55 0.76Q116.06 0.76 113.75 0.11 111.44-0.54 109.44-1.72 107.44-2.91 105.78-4.55 104.12-6.2 102.95-8.22 101.77-10.23 101.13-12.55 100.48-14.87 100.48-17.36L100.48-17.36Q100.48-19.85 101.13-22.14 101.77-24.44 102.95-26.45 104.12-28.47 105.78-30.11 107.44-31.76 109.44-32.93 111.44-34.11 113.75-34.75 116.06-35.4 118.55-35.4L118.55-35.4Q121.79-35.4 124.8-34.29 127.8-33.18 130.24-31.1L130.24-31.1 126.58-25Q124.99-26.61 122.92-27.53 120.84-28.44 118.55-28.44L118.55-28.44Q116.25-28.44 114.24-27.56 112.22-26.68 110.71-25.18 109.2-23.68 108.32-21.67 107.44-19.65 107.44-17.36L107.44-17.36Q107.44-15.04 108.32-13.01 109.2-10.99 110.71-9.47 112.22-7.96 114.24-7.08 116.25-6.2 118.55-6.2L118.55-6.2Q119.87-6.2 121.11-6.52 122.36-6.84 123.48-7.4L123.48-7.4 123.48-17.36 130.24-17.36Z" opacity="1" transform="matrix(1,0,0,1,0,0)" fill="#2a2c35" class="wordmark-text-0" data-fill-palette-color="primary" id="text-0"></path></svg></g></svg></g><g transform="matrix(1,0,0,1,126.17009819227792,86.1336599525957)"><svg viewBox="0 0 118.26126180772206 42.50671687750865" height="42.50671687750865" width="118.26126180772206"><g transform="matrix(1,0,0,1,0,0)"><svg width="118.26126180772206" viewBox="-0.1 -39.65 112.39 40.4" height="42.50671687750865" data-palette-color="#2a2c35"><path d="M24.95 0L18.5 0 16.8-8.1 7.9-8.1 6.25 0-0.1 0 8.6-34.55 16.3-34.55 24.95 0ZM12.35-29.7L8.9-12.9 15.85-12.9 12.35-29.7ZM40.65-37.7L46.8-37.05 46.8 0 41.35 0 41.05-3.05Q38.7 0.75 35 0.75L35 0.75Q30.9 0.75 28.72-2.93 26.55-6.6 26.55-13.2L26.55-13.2Q26.55-17.4 27.67-20.58 28.8-23.75 30.8-25.45 32.8-27.15 35.4-27.15L35.4-27.15Q38.6-27.15 40.65-24.5L40.65-24.5 40.65-37.7ZM36.75-3.9Q37.9-3.9 38.82-4.7 39.75-5.5 40.65-7L40.65-7 40.65-19.85Q39.05-22.55 37-22.55L37-22.55Q32.95-22.55 32.95-13.25L32.95-13.25Q32.95-8.2 33.95-6.05 34.95-3.9 36.75-3.9L36.75-3.9ZM65.45-37.7L71.59-37.05 71.59 0 66.15 0 65.84-3.05Q63.5 0.75 59.8 0.75L59.8 0.75Q55.7 0.75 53.52-2.93 51.35-6.6 51.35-13.2L51.35-13.2Q51.35-17.4 52.47-20.58 53.6-23.75 55.6-25.45 57.6-27.15 60.2-27.15L60.2-27.15Q63.4-27.15 65.45-24.5L65.45-24.5 65.45-37.7ZM61.55-3.9Q62.7-3.9 63.62-4.7 64.55-5.5 65.45-7L65.45-7 65.45-19.85Q63.85-22.55 61.8-22.55L61.8-22.55Q57.75-22.55 57.75-13.25L57.75-13.25Q57.75-8.2 58.75-6.05 59.75-3.9 61.55-3.9L61.55-3.9ZM87.14-26.45L93.29-26.45 93.29 0 87.14 0 87.14-26.45ZM90.19-39.65Q91.84-39.65 92.87-38.6 93.89-37.55 93.89-35.9L93.89-35.9Q93.89-34.3 92.87-33.25 91.84-32.2 90.19-32.2L90.19-32.2Q88.54-32.2 87.52-33.25 86.49-34.3 86.49-35.9L86.49-35.9Q86.49-37.55 87.52-38.6 88.54-39.65 90.19-39.65L90.19-39.65ZM110.14-5L112.29-1.2Q109.84 0.75 106.54 0.75L106.54 0.75Q103.09 0.75 101.29-1.23 99.49-3.2 99.49-6.6L99.49-6.6 99.49-22 96.39-22 96.39-26.45 99.49-26.45 99.49-32.3 105.64-33.05 105.64-26.45 110.64-26.45 110.04-22 105.64-22 105.64-6.6Q105.64-4.2 107.69-4.2L107.69-4.2Q108.34-4.2 108.84-4.38 109.34-4.55 110.14-5L110.14-5Z" opacity="1" transform="matrix(1,0,0,1,0,0)" fill="#2a2c35" class="slogan-text-1" data-fill-palette-color="secondary" id="text-1"></path></svg></g></svg></g></svg></g></svg></g></svg></g></svg></g></svg></g><g><path d="M0 123.6c0-68.262 55.338-123.6 123.6-123.6 41.158 0 77.617 20.117 100.081 51.055h-3.91c-21.989-29.104-56.883-47.913-96.171-47.913-66.527 0-120.458 53.931-120.458 120.458 0 66.527 53.931 120.458 120.458 120.458 39.288 0 74.183-18.809 96.171-47.913h3.91c-22.464 30.938-58.924 51.055-100.081 51.055-68.262 0-123.6-55.338-123.6-123.6z" fill="#2a2c35" stroke="transparent" data-fill-palette-color="tertiary"></path></g></svg></g><defs></defs></svg><rect width="395.52" height="247.2" fill="none" stroke="none" visibility="hidden"></rect></g></svg></g></svg>